<?xml version="1.0" standalone="no"?>
<!DOCTYPE svg PUBLIC "-//W3C//DTD SVG 20010904//EN"
 "http://www.w3.org/TR/2001/REC-SVG-20010904/DTD/svg10.dtd">
<svg version="1.0" xmlns="http://www.w3.org/2000/svg"
 width="1920.000000pt" height="1920.000000pt" viewBox="0 0 1920.000000 1920.000000"
 preserveAspectRatio="xMidYMid meet">

<g transform="translate(0.000000,1920.000000) scale(0.100000,-0.100000)"
fill="#000000" stroke="none">
<path d="M0 9600 l0 -9600 9600 0 9600 0 0 9600 0 9600 -9600 0 -9600 0 0
-9600z m9370 1020 l0 -3190 -492 2 -493 3 -5 1783 -5 1783 -370 -462 c-203
-254 -399 -499 -435 -545 -36 -45 -68 -82 -71 -81 -4 1 -192 234 -419 517
-227 283 -414 517 -416 519 -9 10 -78 -160 -133 -326 -279 -840 -205 -1751
205 -2531 461 -878 1294 -1495 2266 -1681 87 -17 329 -51 360 -51 4 0 8 -218
8 -485 l0 -485 -40 0 c-23 0 -105 7 -183 16 -929 102 -1797 511 -2471 1164
-597 578 -1000 1296 -1182 2103 -276 1227 12 2518 785 3517 75 96 249 297 307
352 l39 37 435 -544 c239 -299 438 -541 442 -539 4 2 188 230 409 507 222 276
539 671 704 877 166 206 401 500 523 653 122 152 225 277 227 277 3 0 5 -1436
5 -3190z m715 3170 c713 -85 1376 -341 1957 -757 947 -678 1576 -1721 1727
-2862 82 -617 36 -1205 -140 -1789 -486 -1616 -1899 -2792 -3576 -2976 -78 -9
-160 -16 -183 -16 l-40 0 0 485 c0 267 4 485 8 485 41 0 287 37 402 60 1283
258 2292 1280 2539 2572 22 112 51 332 51 380 l0 28 -1005 0 -1005 0 -2 -982
-3 -983 -492 -3 -493 -2 0 3190 0 3190 43 0 c23 0 118 -9 212 -20z"/>
<path d="M10820 11499 l0 -1109 958 2 957 3 -3 25 c-7 48 -105 336 -154 450
-268 628 -743 1173 -1320 1516 -115 68 -199 112 -345 180 l-93 43 0 -1110z"/>
</g>
</svg>
